<svg xmlns="http://www.w3.org/2000/svg" xmlns:xlink="http://www.w3.org/1999/xlink" width="1080" zoomAndPan="magnify" viewBox="0 0 810 1439.999935" height="1920" preserveAspectRatio="xMidYMid meet" version="1.0"><defs><g/><clipPath id="f1da9a87f1"><path d="M 0 0 L 810 0 L 810 293 L 0 293 Z M 0 0 " clip-rule="nonzero"/></clipPath><clipPath id="5423f77db4"><path d="M 912.652344 462.511719 L -134.65625 178.59375 L -9.949219 -281.417969 L 1037.359375 2.496094 Z M 912.652344 462.511719 " clip-rule="nonzero"/></clipPath><clipPath id="341fa6082b"><path d="M -9.761719 -240.726562 C 11.15625 -240.558594 22.828125 -225.339844 41.394531 -226.859375 C 56.949219 -230.171875 83.546875 -215.855469 107.742188 -232.953125 C 113.507812 -219.875 130.820312 -232.042969 168.789062 -215.890625 C 171.09375 -223.820312 175.28125 -204.753906 181.75 -211.84375 C 186.792969 -212.949219 183.5625 -214.671875 186.769531 -205.292969 C 190.90625 -209.292969 194.960938 -214.234375 206.085938 -206.539062 C 232.332031 -191.917969 208.070312 -177.53125 258.070312 -191.375 C 269.160156 -199.242188 276.898438 -154.238281 295.25 -184.058594 C 297.820312 -179.152344 295.652344 -175.261719 308.738281 -179.824219 C 315.851562 -153.210938 320.007812 -191.804688 338.082031 -155.429688 C 359.847656 -167.507812 353.113281 -154.25 385.304688 -150.222656 C 386.875 -152.070312 394.535156 -125.441406 403.269531 -131.027344 C 418.765625 -139.304688 397.214844 -111.328125 435.570312 -126.015625 C 448.628906 -122.988281 468.128906 -113.644531 481.691406 -114.78125 C 519.359375 -111.320312 549.789062 -56 580.375 -80.65625 C 602.429688 -73.671875 576.375 -66.300781 598.363281 -74.199219 C 611.230469 -69.730469 626.695312 -55.601562 658.542969 -63.386719 C 670.222656 -43.84375 709.988281 -54.363281 740.167969 -54.089844 C 758.269531 -39.757812 744.179688 -37.339844 777.226562 -27.089844 C 779.882812 -33.523438 791.480469 2.414062 821 -4.085938 C 832.050781 10.628906 831.664062 14.109375 852.792969 25.898438 C 852.410156 34.792969 870.160156 19.535156 883.65625 43.132812 C 883.066406 38.070312 912.507812 43.535156 936.304688 50.988281 C 946.253906 46.667969 967.246094 54.296875 967.636719 73.71875 C 964.113281 80.558594 1007.949219 74.417969 1005.386719 109.75 C 989.414062 164.898438 977.347656 223.382812 959.324219 275.636719 C 959.757812 281.523438 955.523438 277.257812 933.839844 280.15625 C 934.824219 280.3125 921.847656 278.289062 906.464844 291.070312 C 890.714844 288.359375 868.960938 288.480469 853.289062 291.894531 C 817.910156 295.023438 763.214844 270.214844 667.847656 262.472656 C 648.695312 262.539062 619.523438 259.867188 592.601562 260.320312 C 586.152344 253.539062 569.363281 283.738281 536.453125 263.476562 C 512.308594 272.660156 468.527344 266.273438 446.277344 270.445312 C 430.035156 255.816406 400.082031 259.726562 378.691406 254.148438 C 341.242188 244.867188 389.089844 270.78125 279.625 246.917969 C 262.921875 233.589844 245.167969 229.960938 213.449219 228.132812 C 191.328125 217.125 182.863281 211.777344 162.222656 212.640625 C 125.578125 212.222656 87.9375 216.296875 29.21875 215.460938 C 24.167969 218.96875 30.304688 212.523438 -11.148438 204.292969 C -13.675781 203.339844 -14.726562 188.730469 -32.757812 194.09375 C -38.851562 187.40625 -76.367188 182.558594 -94.074219 188.875 C -97.476562 187.53125 -113.363281 174.804688 -118.589844 180.847656 C -112.753906 99.582031 -72.203125 25.117188 -60.675781 -57.683594 C -39.039062 -118.425781 -28.246094 -172.375 -9.761719 -240.726562 " clip-rule="nonzero"/></clipPath></defs><rect x="-81" width="972" fill="#ffffff" y="-143.999994" height="1727.999922" fill-opacity="1"/><rect x="-81" width="972" fill="#ffffff" y="-143.999994" height="1727.999922" fill-opacity="1"/><rect x="-81" width="972" fill="#f4f0f0" y="-143.999994" height="1727.999922" fill-opacity="1"/><g clip-path="url(#f1da9a87f1)"><g clip-path="url(#5423f77db4)"><g clip-path="url(#341fa6082b)"><path fill="#efe8e1" d="M 910.765625 461.257812 L -125.476562 180.339844 L -4.707031 -265.144531 L 1031.535156 15.769531 Z M 910.765625 461.257812 " fill-opacity="1" fill-rule="nonzero"/></g></g></g><g fill="#9f6947" fill-opacity="1"><g transform="translate(314.129966, 138.793137)"><g><path d="M 3.550781 -3.550781 C 3.550781 -1.296875 2.160156 -0.046875 0.527344 -0.046875 L 7.441406 -0.046875 C 5.808594 -0.046875 4.414062 -1.296875 4.414062 -3.550781 L 4.414062 -30.816406 L 31.390625 0.910156 L 31.441406 -30.335938 L 31.441406 -30.238281 C 31.441406 -32.542969 32.832031 -33.792969 34.464844 -33.792969 L 27.550781 -33.792969 C 29.183594 -33.792969 30.574219 -32.542969 30.574219 -30.238281 L 30.574219 -5.617188 L 6.335938 -33.792969 L -1.007812 -33.792969 C 0.769531 -33.792969 2.160156 -33.40625 3.550781 -31.777344 Z M 3.550781 -3.550781 "/></g></g></g><g fill="#9f6947" fill-opacity="1"><g transform="translate(351.809898, 138.793137)"><g><path d="M 18.238281 -34.609375 C -6.433594 -34.609375 -6.433594 0.71875 18.238281 0.71875 C 42.910156 0.71875 42.910156 -34.609375 18.238281 -34.609375 Z M 18.238281 0.238281 C -1.921875 0.238281 -2.015625 -34.128906 18.238281 -34.128906 C 38.496094 -34.128906 38.398438 0.238281 18.238281 0.238281 Z M 18.238281 0.238281 "/></g></g></g><g fill="#9f6947" fill-opacity="1"><g transform="translate(393.233822, 138.793137)"><g><path d="M -0.0976562 -28.753906 C 0.625 -31.34375 2.257812 -33.3125 6.433594 -33.3125 L 14.207031 -33.3125 L 14.207031 -3.601562 C 14.207031 -1.34375 12.816406 -0.0976562 11.183594 -0.0976562 L 20.304688 -0.0976562 C 18.671875 -0.0976562 17.28125 -1.34375 17.28125 -3.601562 L 17.28125 -33.3125 L 25.054688 -33.3125 C 29.136719 -33.3125 30.816406 -31.390625 31.488281 -28.847656 L 30.191406 -33.839844 L 1.296875 -33.839844 Z M 31.488281 -28.847656 C 31.488281 -28.847656 31.488281 -28.800781 31.535156 -28.753906 Z M 31.488281 -28.847656 "/></g></g></g><g fill="#9f6947" fill-opacity="1"><g transform="translate(429.137757, 138.793137)"><g><path d="M 8.542969 -0.625 C 7.199219 -0.625 6.046875 -1.679688 6.046875 -3.550781 L 6.046875 -17.664062 L 19.296875 -17.664062 C 21.265625 -17.664062 22.800781 -16.609375 22.800781 -14.734375 L 22.800781 -21.214844 C 22.800781 -19.390625 21.265625 -18.289062 19.296875 -18.289062 L 6.046875 -18.289062 L 6.046875 -30.238281 C 6.046875 -32.160156 7.199219 -33.167969 8.542969 -33.167969 L 21.984375 -33.167969 C 26.0625 -33.167969 27.742188 -31.34375 28.414062 -28.753906 L 27.121094 -33.792969 L 0 -33.792969 C 1.632812 -33.792969 3.023438 -32.542969 3.023438 -30.238281 L 3.023438 -3.550781 C 3.023438 -1.296875 1.632812 -0.046875 0 -0.046875 L 27.121094 -0.046875 L 28.414062 -5.039062 C 27.742188 -2.496094 26.0625 -0.625 21.984375 -0.625 Z M 28.464844 -5.089844 L 28.464844 -5.136719 Z M 28.464844 -5.089844 C 28.414062 -5.089844 28.414062 -5.089844 28.414062 -5.039062 Z M 28.464844 -5.089844 "/></g></g></g><g fill="#9f6947" fill-opacity="1"><g transform="translate(462.785696, 138.793137)"><g><path d="M 14.832031 0.527344 C 21.9375 0.527344 28.703125 -2.351562 28.703125 -9.359375 C 28.703125 -23.710938 3.839844 -14.304688 3.839844 -26.257812 C 3.839844 -30.097656 7.390625 -33.648438 12.863281 -33.984375 C 16.753906 -34.175781 21.023438 -33.550781 24.625 -30.769531 C 23.664062 -30.671875 22.992188 -29.855469 22.992188 -28.945312 C 22.992188 -27.886719 23.808594 -27.070312 24.863281 -27.070312 C 25.871094 -27.070312 26.734375 -27.886719 26.734375 -28.945312 C 26.734375 -29.328125 26.59375 -29.664062 26.398438 -30 C 26.351562 -30.097656 26.257812 -30.191406 26.160156 -30.335938 C 23.039062 -33.214844 18.382812 -34.558594 13.34375 -34.414062 C 4.894531 -34.128906 1.054688 -29.28125 1.007812 -24.910156 C 0.960938 -12 26.015625 -19.441406 26.015625 -9.121094 C 26.015625 -2.832031 20.207031 0.144531 14.113281 0.144531 C 10.558594 0.144531 6.960938 -0.816406 4.273438 -2.734375 C 2.785156 -4.03125 2.160156 -6.527344 2.878906 -8.113281 L -0.238281 -4.894531 C 4.222656 -0.769531 8.878906 0.527344 14.832031 0.527344 Z M 14.832031 0.527344 "/></g></g></g><path stroke-linecap="round" transform="matrix(0.75, 0, 0, 0.75, 81.000011, 446.668789)" fill="none" stroke-linejoin="miter" d="M 10.499986 1.498906 L 853.500059 1.498906 " stroke="#dfbca7" stroke-width="3" stroke-opacity="1" stroke-miterlimit="4"/><path stroke-linecap="round" transform="matrix(0.75, 0, 0, 0.75, 81.000011, 446.668789)" fill="none" stroke-linejoin="round" d="M 1.499985 1.498906 L 5.999986 -3.001094 L 10.499986 1.498906 L 5.999986 5.998907 L 1.499985 1.498906 " stroke="#dfbca7" stroke-width="3" stroke-opacity="1" stroke-miterlimit="4"/><path stroke-linecap="round" transform="matrix(0.75, 0, 0, 0.75, 81.000011, 446.668789)" fill="none" stroke-linejoin="round" d="M 862.50006 1.498906 L 858.000059 -3.001094 L 853.500059 1.498906 L 858.000059 5.998907 L 862.50006 1.498906 " stroke="#dfbca7" stroke-width="3" stroke-opacity="1" stroke-miterlimit="4"/><path stroke-linecap="round" transform="matrix(0.75, 0, 0, 0.75, 81.000011, 556.359364)" fill="none" stroke-linejoin="miter" d="M 10.499986 1.500015 L 853.500059 1.500015 " stroke="#dfbca7" stroke-width="3" stroke-opacity="1" stroke-miterlimit="4"/><path stroke-linecap="round" transform="matrix(0.75, 0, 0, 0.75, 81.000011, 556.359364)" fill="none" stroke-linejoin="round" d="M 1.499985 1.500015 L 5.999986 -2.999985 L 10.499986 1.500015 L 5.999986 6.000016 L 1.499985 1.500015 " stroke="#dfbca7" stroke-width="3" stroke-opacity="1" stroke-miterlimit="4"/><path stroke-linecap="round" transform="matrix(0.75, 0, 0, 0.75, 81.000011, 556.359364)" fill="none" stroke-linejoin="round" d="M 862.50006 1.500015 L 858.000059 -2.999985 L 853.500059 1.500015 L 858.000059 6.000016 L 862.50006 1.500015 " stroke="#dfbca7" stroke-width="3" stroke-opacity="1" stroke-miterlimit="4"/><path stroke-linecap="round" transform="matrix(0.75, 0, 0, 0.75, 81.000011, 666.049914)" fill="none" stroke-linejoin="miter" d="M 10.499986 1.501156 L 853.500059 1.501156 " stroke="#dfbca7" stroke-width="3" stroke-opacity="1" stroke-miterlimit="4"/><path stroke-linecap="round" transform="matrix(0.75, 0, 0, 0.75, 81.000011, 666.049914)" fill="none" stroke-linejoin="round" d="M 1.499985 1.501156 L 5.999986 -2.998844 L 10.499986 1.501156 L 5.999986 6.001157 L 1.499985 1.501156 " stroke="#dfbca7" stroke-width="3" stroke-opacity="1" stroke-miterlimit="4"/><path stroke-linecap="round" transform="matrix(0.75, 0, 0, 0.75, 81.000011, 666.049914)" fill="none" stroke-linejoin="round" d="M 862.50006 1.501156 L 858.000059 -2.998844 L 853.500059 1.501156 L 858.000059 6.001157 L 862.50006 1.501156 " stroke="#dfbca7" stroke-width="3" stroke-opacity="1" stroke-miterlimit="4"/><path stroke-linecap="round" transform="matrix(0.75, 0, 0, 0.75, 81.000011, 775.740441)" fill="none" stroke-linejoin="miter" d="M 10.499986 1.502329 L 853.500059 1.502329 " stroke="#dfbca7" stroke-width="3" stroke-opacity="1" stroke-miterlimit="4"/><path stroke-linecap="round" transform="matrix(0.75, 0, 0, 0.75, 81.000011, 775.740441)" fill="none" stroke-linejoin="round" d="M 1.499985 1.502329 L 5.999986 -2.997671 L 10.499986 1.502329 L 5.999986 6.00233 L 1.499985 1.502329 " stroke="#dfbca7" stroke-width="3" stroke-opacity="1" stroke-miterlimit="4"/><path stroke-linecap="round" transform="matrix(0.75, 0, 0, 0.75, 81.000011, 775.740441)" fill="none" stroke-linejoin="round" d="M 862.50006 1.502329 L 858.000059 -2.997671 L 853.500059 1.502329 L 858.000059 6.00233 L 862.50006 1.502329 " stroke="#dfbca7" stroke-width="3" stroke-opacity="1" stroke-miterlimit="4"/><path stroke-linecap="round" transform="matrix(0.75, 0, 0, 0.75, 81.000011, 885.431039)" fill="none" stroke-linejoin="miter" d="M 10.499986 1.498198 L 853.500059 1.498198 " stroke="#dfbca7" stroke-width="3" stroke-opacity="1" stroke-miterlimit="4"/><path stroke-linecap="round" transform="matrix(0.75, 0, 0, 0.75, 81.000011, 885.431039)" fill="none" stroke-linejoin="round" d="M 1.499985 1.498198 L 5.999986 -3.001802 L 10.499986 1.498198 L 5.999986 5.998198 L 1.499985 1.498198 " stroke="#dfbca7" stroke-width="3" stroke-opacity="1" stroke-miterlimit="4"/><path stroke-linecap="round" transform="matrix(0.75, 0, 0, 0.75, 81.000011, 885.431039)" fill="none" stroke-linejoin="round" d="M 862.50006 1.498198 L 858.000059 -3.001802 L 853.500059 1.498198 L 858.000059 5.998198 L 862.50006 1.498198 " stroke="#dfbca7" stroke-width="3" stroke-opacity="1" stroke-miterlimit="4"/><path stroke-linecap="round" transform="matrix(0.75, 0, 0, 0.75, 81.000011, 995.121566)" fill="none" stroke-linejoin="miter" d="M 10.499986 1.499371 L 853.500059 1.499371 " stroke="#dfbca7" stroke-width="3" stroke-opacity="1" stroke-miterlimit="4"/><path stroke-linecap="round" transform="matrix(0.75, 0, 0, 0.75, 81.000011, 995.121566)" fill="none" stroke-linejoin="round" d="M 1.499985 1.499371 L 5.999986 -3.000629 L 10.499986 1.499371 L 5.999986 5.999371 L 1.499985 1.499371 " stroke="#dfbca7" stroke-width="3" stroke-opacity="1" stroke-miterlimit="4"/><path stroke-linecap="round" transform="matrix(0.75, 0, 0, 0.75, 81.000011, 995.121566)" fill="none" stroke-linejoin="round" d="M 862.50006 1.499371 L 858.000059 -3.000629 L 853.500059 1.499371 L 858.000059 5.999371 L 862.50006 1.499371 " stroke="#dfbca7" stroke-width="3" stroke-opacity="1" stroke-miterlimit="4"/><path stroke-linecap="round" transform="matrix(0.75, 0, 0, 0.75, 81.000011, 1104.811996)" fill="none" stroke-linejoin="miter" d="M 10.499986 1.500672 L 853.500059 1.500672 " stroke="#dfbca7" stroke-width="3" stroke-opacity="1" stroke-miterlimit="4"/><path stroke-linecap="round" transform="matrix(0.75, 0, 0, 0.75, 81.000011, 1104.811996)" fill="none" stroke-linejoin="round" d="M 1.499985 1.500672 L 5.999986 -2.999328 L 10.499986 1.500672 L 5.999986 6.000672 L 1.499985 1.500672 " stroke="#dfbca7" stroke-width="3" stroke-opacity="1" stroke-miterlimit="4"/><path stroke-linecap="round" transform="matrix(0.75, 0, 0, 0.75, 81.000011, 1104.811996)" fill="none" stroke-linejoin="round" d="M 862.50006 1.500672 L 858.000059 -2.999328 L 853.500059 1.500672 L 858.000059 6.000672 L 862.50006 1.500672 " stroke="#dfbca7" stroke-width="3" stroke-opacity="1" stroke-miterlimit="4"/><path stroke-linecap="round" transform="matrix(0.75, 0, 0, 0.75, 81.000011, 1214.502643)" fill="none" stroke-linejoin="miter" d="M 10.499986 1.501685 L 853.500059 1.501685 " stroke="#dfbca7" stroke-width="3" stroke-opacity="1" stroke-miterlimit="4"/><path stroke-linecap="round" transform="matrix(0.75, 0, 0, 0.75, 81.000011, 1214.502643)" fill="none" stroke-linejoin="round" d="M 1.499985 1.501685 L 5.999986 -2.998315 L 10.499986 1.501685 L 5.999986 6.001685 L 1.499985 1.501685 " stroke="#dfbca7" stroke-width="3" stroke-opacity="1" stroke-miterlimit="4"/><path stroke-linecap="round" transform="matrix(0.75, 0, 0, 0.75, 81.000011, 1214.502643)" fill="none" stroke-linejoin="round" d="M 862.50006 1.501685 L 858.000059 -2.998315 L 853.500059 1.501685 L 858.000059 6.001685 L 862.50006 1.501685 " stroke="#dfbca7" stroke-width="3" stroke-opacity="1" stroke-miterlimit="4"/><path stroke-linecap="round" transform="matrix(0.75, 0, 0, 0.75, 81.000011, 336.97826)" fill="none" stroke-linejoin="miter" d="M 10.499986 1.497736 L 853.500059 1.497736 " stroke="#dfbca7" stroke-width="3" stroke-opacity="1" stroke-miterlimit="4"/><path stroke-linecap="round" transform="matrix(0.75, 0, 0, 0.75, 81.000011, 336.97826)" fill="none" stroke-linejoin="round" d="M 1.499985 1.497736 L 5.999986 -3.002264 L 10.499986 1.497736 L 5.999986 5.997737 L 1.499985 1.497736 " stroke="#dfbca7" stroke-width="3" stroke-opacity="1" stroke-miterlimit="4"/><path stroke-linecap="round" transform="matrix(0.75, 0, 0, 0.75, 81.000011, 336.97826)" fill="none" stroke-linejoin="round" d="M 862.50006 1.497736 L 858.000059 -3.002264 L 853.500059 1.497736 L 858.000059 5.997737 L 862.50006 1.497736 " stroke="#dfbca7" stroke-width="3" stroke-opacity="1" stroke-miterlimit="4"/></svg>